<svg width="55" height="36" viewBox="0 0 55 36" fill="none" xmlns="http://www.w3.org/2000/svg">
<g clip-path="url(#clip0_9829_82)">
<path d="M0 7.45186C0 6.81736 0.334695 6.2297 0.880929 5.90516L8.09406 1.61944C9.29608 0.905246 10.8197 1.76985 10.8197 3.16616V32.8338C10.8197 34.2301 9.29608 35.0947 8.09406 34.3805L0.880933 30.0948C0.334695 29.7703 0 29.1826 0 28.5481V7.45186Z" fill="#C61F1F"/>
<path d="M15.3279 7.6247C15.3279 6.89997 15.7633 6.24594 16.4326 5.96523L28.1539 1.04925C29.3424 0.550817 30.6557 1.42198 30.6557 2.70872V33.2913C30.6557 34.578 29.3424 35.4491 28.1539 34.9507L16.4326 30.0347C15.7633 29.754 15.3279 29.1 15.3279 28.3753V7.6247Z" fill="#C61F1F"/>
<path d="M35 8.06109C35 7.2811 35.5033 6.5899 36.2464 6.34906L52.476 1.0893C53.6409 0.711728 54.8361 1.57863 54.8361 2.80133V33.8475C54.8361 35.0702 53.6409 35.9371 52.476 35.5596L36.2464 30.2998C35.5033 30.0589 35 29.3677 35 28.5877V8.06109Z" fill="#C61F1F"/>
</g>
<defs>
<clipPath id="clip0_9829_82">
<rect width="55" height="36" fill="white"/>
</clipPath>
</defs>
</svg>
