<svg width="103" height="40" viewBox="0 0 103 40" fill="none" xmlns="http://www.w3.org/2000/svg">
<g clip-path="url(#clip0_9829_81)">
<path d="M0 7.45186C0 6.81736 0.334695 6.2297 0.880929 5.90516L8.09406 1.61944C9.29608 0.905246 10.8197 1.76985 10.8197 3.16616V32.8338C10.8197 34.2301 9.29608 35.0947 8.09406 34.3805L0.880933 30.0948C0.334695 29.7703 0 29.1826 0 28.5481V7.45186Z" fill="#C61F1F"/>
<path d="M15.3279 7.6247C15.3279 6.89997 15.7633 6.24594 16.4326 5.96523L28.1539 1.04925C29.3424 0.550817 30.6557 1.42198 30.6557 2.70872V33.2913C30.6557 34.578 29.3424 35.4491 28.1539 34.9507L16.4326 30.0347C15.7633 29.754 15.3279 29.1 15.3279 28.3753V7.6247Z" fill="#C61F1F"/>
<path d="M35 8.06109C35 7.2811 35.5033 6.5899 36.2464 6.34906L52.476 1.0893C53.6409 0.711728 54.8361 1.57863 54.8361 2.80133V33.8475C54.8361 35.0702 53.6409 35.9371 52.476 35.5596L36.2464 30.2998C35.5033 30.0589 35 29.3677 35 28.5877V8.06109Z" fill="#C61F1F"/>
</g>
<path d="M64.6953 17.0352C63.8594 17.0352 63.4414 16.8164 63.4414 16.3789V3.04297C63.4414 2.81641 63.543 2.64844 63.7461 2.53906C63.9492 2.42188 64.2656 2.36328 64.6953 2.36328H65.7969C66.4609 2.36328 66.8945 2.55469 67.0977 2.9375L70.6016 9.16016L70.7773 9.46484L70.9531 9.10156L74.4805 2.9375C74.6914 2.55469 75.1289 2.36328 75.793 2.36328H76.8828C77.7188 2.36328 78.1367 2.58984 78.1367 3.04297V16.3789C78.1367 16.8164 77.7188 17.0352 76.8828 17.0352H76.2734C75.4375 17.0352 75.0195 16.8164 75.0195 16.3789V7.74219L74.9375 7.71875L71.9141 13.1211C71.7344 13.3867 71.457 13.5195 71.082 13.5195H70.4844C70.2891 13.5195 70.125 13.4883 69.9922 13.4258C69.8594 13.3555 69.7461 13.2539 69.6523 13.1211L66.6172 7.71875L66.5352 7.74219V16.3789C66.5352 16.8164 66.1211 17.0352 65.293 17.0352H64.6953ZM87.4119 17.1758C85.99 17.1758 84.7791 16.8867 83.7791 16.3086C82.7869 15.7305 82.0291 14.8867 81.5056 13.7773C80.99 12.6602 80.7322 11.3008 80.7322 9.69922C80.7322 8.10547 80.99 6.75391 81.5056 5.64453C82.0291 4.52734 82.7869 3.68359 83.7791 3.11328C84.7791 2.53516 85.99 2.24609 87.4119 2.24609C88.8416 2.24609 90.0525 2.53516 91.0447 3.11328C92.0447 3.68359 92.8025 4.52734 93.3181 5.64453C93.8337 6.75391 94.0916 8.10547 94.0916 9.69922C94.0916 11.3008 93.8337 12.6602 93.3181 13.7773C92.8025 14.8867 92.0447 15.7305 91.0447 16.3086C90.0525 16.8867 88.8416 17.1758 87.4119 17.1758ZM87.4119 14.4336C88.5291 14.4336 89.3728 14.0312 89.9431 13.2266C90.5134 12.4141 90.7986 11.2383 90.7986 9.69922C90.7986 8.16016 90.5134 6.99219 89.9431 6.19531C89.3728 5.39844 88.5291 5 87.4119 5C86.3025 5 85.4587 5.40234 84.8806 6.20703C84.3103 7.00391 84.0252 8.16797 84.0252 9.69922C84.0252 11.2383 84.3142 12.4141 84.8923 13.2266C85.4705 14.0312 86.3103 14.4336 87.4119 14.4336ZM67.8594 37.0352C67.5234 37.0352 67.2578 37.0039 67.0625 36.9414C66.8672 36.8711 66.7461 36.7578 66.6992 36.6016L62.1992 23.207C62.1367 23.0195 62.1055 22.8945 62.1055 22.832C62.1055 22.5195 62.5312 22.3633 63.3828 22.3633H64.0625C64.7578 22.3633 65.168 22.5703 65.293 22.9844L68.1055 31.9961L68.3398 32.7227H68.4219L68.6562 31.9961L71.5391 22.9844C71.6797 22.5703 72.0938 22.3633 72.7812 22.3633H73.4141C74.25 22.3633 74.668 22.5195 74.668 22.832C74.668 22.9727 74.6445 23.0977 74.5977 23.207L70.0977 36.6016C70.0508 36.7578 69.9258 36.8711 69.7227 36.9414C69.5273 37.0039 69.2656 37.0352 68.9375 37.0352H67.8594ZM77.6736 37.0586C77.2517 37.0586 76.9353 37 76.7244 36.8828C76.5212 36.7656 76.4197 36.5977 76.4197 36.3789V23.043C76.4197 22.582 76.8377 22.3516 77.6736 22.3516H78.4002C78.8298 22.3516 79.1423 22.4102 79.3377 22.5273C79.5408 22.6445 79.6423 22.8164 79.6423 23.043V36.3789C79.6423 36.832 79.2283 37.0586 78.4002 37.0586H77.6736ZM83.5034 37C83.2144 37 83.0034 36.9336 82.8706 36.8008C82.7378 36.668 82.6714 36.457 82.6714 36.168V23.2422C82.6714 22.9531 82.7378 22.7461 82.8706 22.6211C83.0034 22.4883 83.2144 22.4219 83.5034 22.4219H91.1323C91.3511 22.4219 91.5073 22.5039 91.6011 22.668C91.7027 22.832 91.7534 23.0977 91.7534 23.4648V24.0977C91.7534 24.4648 91.7027 24.7305 91.6011 24.8945C91.5073 25.0586 91.3511 25.1406 91.1323 25.1406H85.8823V28.1641H90.5698C90.7886 28.1641 90.9448 28.2461 91.0386 28.4102C91.1402 28.5742 91.1909 28.8398 91.1909 29.207V29.8516C91.1909 30.2188 91.1402 30.4844 91.0386 30.6484C90.9448 30.8125 90.7886 30.8945 90.5698 30.8945H85.8823V34.2695H91.1441C91.3628 34.2695 91.5191 34.3516 91.6128 34.5156C91.7144 34.6797 91.7652 34.9414 91.7652 35.3008V35.957C91.7652 36.3242 91.7144 36.5898 91.6128 36.7539C91.5191 36.918 91.3628 37 91.1441 37H83.5034Z" fill="#C61F1F"/>
<defs>
<clipPath id="clip0_9829_81">
<rect width="55" height="36" fill="white"/>
</clipPath>
</defs>
</svg>
